<svg width="151" height="40" viewBox="0 0 151 40" fill="none" xmlns="http://www.w3.org/2000/svg">
<path d="M95.7512 26V13.05H98.1562V26H95.7512ZM96.8612 20.6905V18.5075H103.54V20.6905H96.8612ZM96.8612 15.27V13.05H104.335V15.27H96.8612Z" fill="#2563EB"/>
<path d="M106.489 26V16.2505H108.764V26H106.489ZM107.599 14.1785C107.142 14.1785 106.785 14.0675 106.526 13.8455C106.279 13.6112 106.156 13.2843 106.156 12.865C106.156 12.4703 106.285 12.1497 106.544 11.903C106.803 11.6563 107.155 11.533 107.599 11.533C108.067 11.533 108.425 11.6502 108.672 11.8845C108.931 12.1065 109.06 12.4333 109.06 12.865C109.06 13.2473 108.931 13.5618 108.672 13.8085C108.413 14.0552 108.055 14.1785 107.599 14.1785Z" fill="#2563EB"/>
<path d="M111.279 26V16.2505H113.499L113.536 18.2485L113.111 18.4705C113.234 18.0265 113.475 17.6257 113.832 17.268C114.19 16.898 114.616 16.602 115.109 16.38C115.602 16.158 116.108 16.047 116.626 16.047C117.366 16.047 117.983 16.195 118.476 16.491C118.982 16.787 119.358 17.231 119.604 17.823C119.863 18.415 119.993 19.155 119.993 20.043V26H117.717V20.2095C117.717 19.7162 117.65 19.3092 117.514 18.9885C117.378 18.6555 117.169 18.415 116.885 18.267C116.601 18.1067 116.256 18.0327 115.849 18.045C115.516 18.045 115.208 18.1005 114.924 18.2115C114.653 18.3102 114.412 18.4582 114.202 18.6555C114.005 18.8405 113.845 19.0563 113.721 19.303C113.61 19.5497 113.555 19.821 113.555 20.117V26H112.426C112.204 26 111.995 26 111.797 26C111.612 26 111.44 26 111.279 26Z" fill="#2563EB"/>
<path d="M126.105 26.185C125.242 26.185 124.465 25.9692 123.774 25.5375C123.096 25.0935 122.553 24.4953 122.146 23.743C121.751 22.9783 121.554 22.1027 121.554 21.116C121.554 20.1417 121.751 19.2722 122.146 18.5075C122.541 17.7428 123.077 17.1447 123.755 16.713C124.446 16.269 125.223 16.047 126.086 16.047C126.555 16.047 127.005 16.121 127.437 16.269C127.881 16.417 128.276 16.6205 128.621 16.8795C128.966 17.1262 129.238 17.4037 129.435 17.712C129.645 18.0203 129.762 18.341 129.786 18.674L129.176 18.748V12.31H131.451V26H129.25L129.194 23.706L129.638 23.743C129.626 24.0513 129.515 24.3473 129.305 24.631C129.108 24.9147 128.849 25.1737 128.528 25.408C128.208 25.6423 127.832 25.8335 127.4 25.9815C126.981 26.1172 126.549 26.185 126.105 26.185ZM126.549 24.261C127.079 24.261 127.548 24.1253 127.955 23.854C128.362 23.5827 128.676 23.2127 128.898 22.744C129.133 22.2753 129.25 21.7327 129.25 21.116C129.25 20.5117 129.133 19.9752 128.898 19.5065C128.676 19.0255 128.362 18.6555 127.955 18.3965C127.548 18.1252 127.079 17.9895 126.549 17.9895C126.019 17.9895 125.55 18.1252 125.143 18.3965C124.736 18.6555 124.415 19.0255 124.181 19.5065C123.959 19.9752 123.848 20.5117 123.848 21.116C123.848 21.7327 123.959 22.2753 124.181 22.744C124.415 23.2127 124.736 23.5827 125.143 23.854C125.55 24.1253 126.019 24.261 126.549 24.261Z" fill="#2563EB"/>
<path d="M138.234 26.185C137.21 26.185 136.304 25.9692 135.514 25.5375C134.737 25.1058 134.127 24.52 133.683 23.78C133.251 23.0277 133.035 22.1705 133.035 21.2085C133.035 20.4438 133.159 19.747 133.405 19.118C133.652 18.489 133.991 17.9463 134.423 17.49C134.867 17.0213 135.391 16.6637 135.995 16.417C136.612 16.158 137.284 16.0285 138.012 16.0285C138.653 16.0285 139.251 16.1518 139.806 16.3985C140.361 16.6452 140.842 16.9843 141.249 17.416C141.656 17.8353 141.965 18.341 142.174 18.933C142.396 19.5127 142.501 20.1478 142.489 20.8385L142.47 21.634H134.571L134.145 20.08H140.565L140.269 20.3945V19.9875C140.232 19.6052 140.109 19.2722 139.899 18.9885C139.689 18.6925 139.418 18.4643 139.085 18.304C138.764 18.1313 138.407 18.045 138.012 18.045C137.408 18.045 136.896 18.1622 136.476 18.3965C136.069 18.6308 135.761 18.97 135.551 19.414C135.342 19.8457 135.237 20.3883 135.237 21.042C135.237 21.671 135.366 22.2198 135.625 22.6885C135.897 23.1572 136.273 23.521 136.754 23.78C137.247 24.0267 137.821 24.15 138.474 24.15C138.931 24.15 139.35 24.076 139.732 23.928C140.115 23.78 140.528 23.5148 140.972 23.1325L142.1 24.705C141.767 25.0133 141.385 25.2785 140.953 25.5005C140.534 25.7102 140.09 25.8767 139.621 26C139.153 26.1233 138.69 26.185 138.234 26.185Z" fill="#2563EB"/>
<path d="M144.134 26V16.2505H146.373L146.41 19.3585L146.095 18.6555C146.231 18.1622 146.465 17.7182 146.798 17.3235C147.131 16.9288 147.514 16.6205 147.945 16.3985C148.389 16.1642 148.852 16.047 149.333 16.047C149.542 16.047 149.74 16.0655 149.925 16.1025C150.122 16.1395 150.282 16.1827 150.406 16.232L149.795 18.7295C149.66 18.6555 149.493 18.5938 149.296 18.5445C149.098 18.4952 148.901 18.4705 148.704 18.4705C148.395 18.4705 148.099 18.5322 147.816 18.6555C147.544 18.7665 147.304 18.9268 147.094 19.1365C146.885 19.3462 146.718 19.5928 146.595 19.8765C146.484 20.1478 146.428 20.4562 146.428 20.8015V26H144.134Z" fill="#2563EB"/>
<path d="M54.099 26V13.05H56.097V26H54.099ZM54.987 20.487V18.563H61.6655V20.487H54.987ZM54.987 14.974V13.05H62.498V14.974H54.987Z" fill="black"/>
<path d="M67.7439 26.185C66.9422 26.185 66.2084 25.963 65.5424 25.519C64.8887 25.075 64.3646 24.4707 63.9699 23.706C63.5752 22.9413 63.3779 22.078 63.3779 21.116C63.3779 20.1417 63.5752 19.2783 63.9699 18.526C64.3769 17.7613 64.9196 17.1632 65.5979 16.7315C66.2886 16.2998 67.0594 16.084 67.9104 16.084C68.4161 16.084 68.8786 16.158 69.2979 16.306C69.7172 16.454 70.0811 16.6637 70.3894 16.935C70.7101 17.194 70.9691 17.4962 71.1664 17.8415C71.3761 18.1868 71.5056 18.5568 71.5549 18.9515L71.1294 18.8035V16.2875H73.0534V26H71.1294V23.6875L71.5734 23.558C71.4994 23.891 71.3452 24.2178 71.1109 24.5385C70.8889 24.8468 70.5991 25.1243 70.2414 25.371C69.8961 25.6177 69.5076 25.815 69.0759 25.963C68.6566 26.111 68.2126 26.185 67.7439 26.185ZM68.2434 24.4275C68.8231 24.4275 69.3349 24.2857 69.7789 24.002C70.2229 23.7183 70.5682 23.3298 70.8149 22.8365C71.0739 22.3308 71.2034 21.7573 71.2034 21.116C71.2034 20.487 71.0739 19.9258 70.8149 19.4325C70.5682 18.9392 70.2229 18.5507 69.7789 18.267C69.3349 17.9833 68.8231 17.8415 68.2434 17.8415C67.6761 17.8415 67.1704 17.9833 66.7264 18.267C66.2947 18.5507 65.9494 18.9392 65.6904 19.4325C65.4437 19.9258 65.3204 20.487 65.3204 21.116C65.3204 21.7573 65.4437 22.3308 65.6904 22.8365C65.9494 23.3298 66.2947 23.7183 66.7264 24.002C67.1704 24.2857 67.6761 24.4275 68.2434 24.4275Z" fill="black"/>
<path d="M79.4694 26.185C78.5691 26.185 77.7613 25.963 77.0459 25.519C76.3429 25.075 75.7818 24.4707 75.3624 23.706C74.9554 22.9413 74.7519 22.0842 74.7519 21.1345C74.7519 20.1848 74.9554 19.3277 75.3624 18.563C75.7818 17.7983 76.3429 17.194 77.0459 16.75C77.7613 16.306 78.5691 16.084 79.4694 16.084C80.3328 16.084 81.1159 16.2628 81.8189 16.6205C82.5343 16.9658 83.0769 17.4407 83.4469 18.045L82.3924 19.34C82.1951 19.0563 81.9423 18.7973 81.6339 18.563C81.3256 18.3287 80.9988 18.1437 80.6534 18.008C80.3081 17.8723 79.9751 17.8045 79.6544 17.8045C79.0624 17.8045 78.5321 17.9525 78.0634 18.2485C77.6071 18.5322 77.2433 18.9268 76.9719 19.4325C76.7006 19.9382 76.5649 20.5055 76.5649 21.1345C76.5649 21.7635 76.7068 22.3308 76.9904 22.8365C77.2741 23.3298 77.6503 23.7245 78.1189 24.0205C78.5876 24.3165 79.1056 24.4645 79.6729 24.4645C80.0059 24.4645 80.3266 24.409 80.6349 24.298C80.9556 24.187 81.2639 24.0205 81.5599 23.7985C81.8559 23.5765 82.1334 23.3052 82.3924 22.9845L83.4469 24.2795C83.0523 24.8345 82.4849 25.2908 81.7449 25.6485C81.0173 26.0062 80.2588 26.185 79.4694 26.185Z" fill="black"/>
<path d="M89.4068 26.185C88.4078 26.185 87.5198 25.9753 86.7428 25.556C85.9782 25.1243 85.3738 24.5385 84.9298 23.7985C84.4982 23.0585 84.2823 22.2075 84.2823 21.2455C84.2823 20.4808 84.4057 19.784 84.6523 19.155C84.899 18.526 85.2382 17.9833 85.6698 17.527C86.1138 17.0583 86.638 16.7007 87.2423 16.454C87.859 16.195 88.525 16.0655 89.2403 16.0655C89.8693 16.0655 90.4552 16.1888 90.9978 16.4355C91.5405 16.6698 92.0092 16.9967 92.4038 17.416C92.8108 17.8353 93.1192 18.3348 93.3288 18.9145C93.5508 19.4818 93.6557 20.1047 93.6433 20.783L93.6248 21.597H85.6883L85.2628 20.08H91.9783L91.7008 20.3945V19.9505C91.6638 19.5435 91.5282 19.1797 91.2938 18.859C91.0595 18.5383 90.7635 18.2855 90.4058 18.1005C90.0482 17.9155 89.6597 17.823 89.2403 17.823C88.5743 17.823 88.0132 17.9525 87.5568 18.2115C87.1005 18.4582 86.7552 18.8282 86.5208 19.3215C86.2865 19.8025 86.1693 20.4007 86.1693 21.116C86.1693 21.7943 86.3112 22.3863 86.5948 22.892C86.8785 23.3853 87.2793 23.7677 87.7973 24.039C88.3153 24.3103 88.9135 24.446 89.5918 24.446C90.0728 24.446 90.5168 24.3658 90.9238 24.2055C91.3432 24.0452 91.7933 23.7553 92.2743 23.336L93.2363 24.6865C92.9403 24.9825 92.5765 25.2415 92.1448 25.4635C91.7255 25.6855 91.2753 25.8643 90.7943 26C90.3257 26.1233 89.8632 26.185 89.4068 26.185Z" fill="black"/>
<path fill-rule="evenodd" clip-rule="evenodd" d="M0.098999 20C0.098999 31.046 9.053 40 20.099 40C31.145 40 40.099 31.046 40.099 20C40.099 8.954 31.145 0 20.099 0C9.053 0 0.098999 8.954 0.098999 20ZM20.099 36C12.835 36 6.778 30.837 5.395 23.98C5.069 22.358 6.442 21 8.099 21H32.099C33.756 21 35.13 22.357 34.803 23.98C33.419 30.838 27.363 36 20.099 36ZM31.099 13C31.099 15.2091 29.3081 17 27.099 17C24.8899 17 23.099 15.2091 23.099 13C23.099 10.7909 24.8899 9 27.099 9C29.3081 9 31.099 10.7909 31.099 13ZM13.099 17C15.3081 17 17.099 15.2091 17.099 13C17.099 10.7909 15.3081 9 13.099 9C10.8899 9 9.099 10.7909 9.099 13C9.099 15.2091 10.8899 17 13.099 17Z" fill="#2563EB"/>
</svg>
